--40003LOG 12:27:37:727639600 Waiting for file /home/seluser/videos/vid_chrome_or_firefox_40003* to be created...
Won't start video recording due to VIDEO env var false
ffmpeg version 2.8.17-0ubuntu0.1 Copyright (c) 2000-2020 the FFmpeg developers
  built with gcc 5.4.0 (Ubuntu 5.4.0-6ubuntu1~16.04.12) 20160609
  configuration: --prefix=/usr --extra-version=0ubuntu0.1 --build-suffix=-ffmpeg --toolchain=hardened --libdir=/usr/lib/x86_64-linux-gnu --incdir=/usr/include/x86_64-linux-gnu --cc=cc --cxx=g++ --enable-gpl --enable-shared --disable-stripping --disable-decoder=libopenjpeg --disable-decoder=libschroedinger --enable-avresample --enable-avisynth --enable-gnutls --enable-ladspa --enable-libass --enable-libbluray --enable-libbs2b --enable-libcaca --enable-libcdio --enable-libflite --enable-libfontconfig --enable-libfreetype --enable-libfribidi --enable-libgme --enable-libgsm --enable-libmodplug --enable-libmp3lame --enable-libopenjpeg --enable-libopus --enable-libpulse --enable-librtmp --enable-libschroedinger --enable-libshine --enable-libsnappy --enable-libsoxr --enable-libspeex --enable-libssh --enable-libtheora --enable-libtwolame --enable-libvorbis --enable-libvpx --enable-libwavpack --enable-libwebp --enable-libx265 --enable-libxvid --enable-libzvbi --enable-openal --enable-opengl --enable-x11grab --enable-libdc1394 --enable-libiec61883 --enable-libzmq --enable-frei0r --enable-libx264 --enable-libopencv
  libavutil      54. 31.100 / 54. 31.100
  libavcodec     56. 60.100 / 56. 60.100
  libavformat    56. 40.101 / 56. 40.101
  libavdevice    56.  4.100 / 56.  4.100
  libavfilter     5. 40.101 /  5. 40.101
  libavresample   2.  1.  0 /  2.  1.  0
  libswscale      3.  1.101 /  3.  1.101
  libswresample   1.  2.101 /  1.  2.101
  libpostproc    53.  3.100 / 53.  3.100
Input #0, x11grab, from ':40.0':
  Duration: N/A, start: 1603880858.621432, bitrate: N/A
    Stream #0:0: Video: rawvideo (BGR[0] / 0x524742), bgr0, 1366x768, 10 fps, 10 tbr, 1000k tbn, 10 tbc
[libx264 @ 0x197b320] using cpu capabilities: MMX2 SSE2Fast SSSE3 SSE4.2 AVX FMA3 AVX2 LZCNT BMI2
[libx264 @ 0x197b320] profile Constrained Baseline, level 3.2
[libx264 @ 0x197b320] 264 - core 148 r2643 5c65704 - H.264/MPEG-4 AVC codec - Copyleft 2003-2015 - http://www.videolan.org/x264.html - options: cabac=0 ref=1 deblock=0:0:0 analyse=0:0 me=dia subme=0 psy=1 psy_rd=1.00:0.00 mixed_ref=0 me_range=16 chroma_me=1 trellis=0 8x8dct=0 cqm=0 deadzone=21,11 fast_pskip=1 chroma_qp_offset=0 threads=3 lookahead_threads=1 sliced_threads=0 nr=0 decimate=1 interlaced=0 bluray_compat=0 constrained_intra=0 bframes=0 weightp=0 keyint=250 keyint_min=10 scenecut=0 intra_refresh=0 rc=crf mbtree=0 crf=23.0 qcomp=0.60 qpmin=0 qpmax=69 qpstep=4 ip_ratio=1.40 aq=0
Output #0, matroska, to '/home/seluser/videos/vid_chrome_or_firefox_40003.mkv':
  Metadata:
    encoder         : Lavf56.40.101
    Stream #0:0: Video: h264 (libx264) (H264 / 0x34363248), yuv420p, 1366x768, q=-1--1, 10 fps, 1k tbn, 10 tbc
    Metadata:
      encoder         : Lavc56.60.100 libx264
Stream mapping:
  Stream #0:0 -> #0:0 (rawvideo (native) -> h264 (libx264))
Press [q] to stop, [?] for help
[swscaler @ 0x1986ca0] Warning: data is not aligned! This can lead to a speedloss
frame=    2 fps=1.0 q=0.0 size=       1kB time=00:00:00.00 bitrate=N/A    
frame=    3 fps=0.5 q=0.0 size=       1kB time=00:00:00.00 bitrate=N/A    
frame=    4 fps=0.5 q=0.0 size=       1kB time=00:00:00.00 bitrate=N/A    
frame=    5 fps=0.5 q=13.0 size=      16kB time=00:00:00.10 bitrate=1295.9kbits/s    
frame=    6 fps=0.5 q=20.0 size=      27kB time=00:00:00.20 bitrate=1103.8kbits/s    
frame=    8 fps=0.6 q=22.0 size=      77kB time=00:00:00.40 bitrate=1568.5kbits/s    
frame=    9 fps=0.7 q=20.0 size=      87kB time=00:00:00.50 bitrate=1425.6kbits/s    
frame=   11 fps=0.8 q=15.0 size=     160kB time=00:00:00.70 bitrate=1873.6kbits/s    
frame=   16 fps=1.1 q=10.0 size=     223kB time=00:00:01.20 bitrate=1523.6kbits/s    
frame=   20 fps=1.3 q=9.0 size=     241kB time=00:00:01.60 bitrate=1233.0kbits/s    
frame=   22 fps=1.4 q=9.0 size=     241kB time=00:00:01.80 bitrate=1096.6kbits/s    
frame=   25 fps=1.5 q=10.0 size=     241kB time=00:00:02.10 bitrate= 941.5kbits/s    
frame=   31 fps=1.8 q=9.0 size=     246kB time=00:00:02.70 bitrate= 746.2kbits/s    
frame=   39 fps=2.2 q=9.0 size=     246kB time=00:00:03.50 bitrate= 576.1kbits/s    
frame=   46 fps=2.5 q=9.0 size=     246kB time=00:00:04.20 bitrate= 480.7kbits/s    
frame=   50 fps=2.6 q=9.0 size=     247kB time=00:00:04.60 bitrate= 439.2kbits/s    
frame=   56 fps=2.9 q=9.0 size=     247kB time=00:00:05.20 bitrate= 388.8kbits/s    
frame=   57 fps=2.7 q=9.0 size=     247kB time=00:00:05.30 bitrate= 381.5kbits/s    
frame=   58 fps=2.7 q=9.0 size=     247kB time=00:00:05.40 bitrate= 374.6kbits/s    
frame=   59 fps=2.6 q=9.0 size=     247kB time=00:00:05.50 bitrate= 367.9kbits/s    
frame=   61 fps=2.6 q=12.0 size=     247kB time=00:00:05.70 bitrate= 355.2kbits/s    
frame=   62 fps=2.6 q=11.0 size=     250kB time=00:00:05.80 bitrate= 352.7kbits/s    
frame=   65 fps=2.6 q=10.0 size=     255kB time=00:00:06.10 bitrate= 342.4kbits/s    
frame=   69 fps=2.7 q=9.0 size=     256kB time=00:00:06.50 bitrate= 322.2kbits/s    
frame=   73 fps=2.8 q=9.0 size=     256kB time=00:00:06.90 bitrate= 303.6kbits/s    
frame=   78 fps=2.9 q=9.0 size=     256kB time=00:00:07.40 bitrate= 283.4kbits/s    
frame=   84 fps=3.1 q=9.0 size=     256kB time=00:00:08.00 bitrate= 262.4kbits/s    
frame=   91 fps=3.3 q=9.0 size=     257kB time=00:00:08.70 bitrate= 241.6kbits/s    
frame=   99 fps=3.5 q=9.0 size=     257kB time=00:00:09.50 bitrate= 221.4kbits/s    
frame=  111 fps=3.8 q=9.0 size=     257kB time=00:00:10.70 bitrate= 196.9kbits/s    
frame=  120 fps=4.1 q=9.0 size=     257kB time=00:00:11.60 bitrate= 181.8kbits/s    
frame=  131 fps=4.4 q=9.0 size=     258kB time=00:00:12.70 bitrate= 166.3kbits/s    
frame=  144 fps=4.7 q=9.0 size=     258kB time=00:00:14.00 bitrate= 151.0kbits/s    
frame=  157 fps=5.1 q=9.0 size=     258kB time=00:00:15.30 bitrate= 138.4kbits/s    
frame=  164 fps=5.2 q=9.0 size=     259kB time=00:00:16.00 bitrate= 132.5kbits/s    
frame=  179 fps=5.6 q=9.0 size=     259kB time=00:00:17.50 bitrate= 121.3kbits/s    
frame=  203 fps=6.2 q=9.0 size=     260kB time=00:00:19.90 bitrate= 107.0kbits/s    
frame=  224 fps=6.8 q=9.0 size=     260kB time=00:00:22.00 bitrate=  97.0kbits/s    
frame=  231 fps=6.9 q=9.0 size=     261kB time=00:00:22.70 bitrate=  94.0kbits/s    
frame=  237 fps=6.9 q=9.0 size=     261kB time=00:00:23.30 bitrate=  91.7kbits/s    
frame=  242 fps=7.0 q=9.0 size=     261kB time=00:00:23.80 bitrate=  89.8kbits/s    
frame=  247 fps=7.0 q=9.0 size=     261kB time=00:00:24.30 bitrate=  88.0kbits/s    
frame=  250 fps=7.0 q=9.0 size=     261kB time=00:00:24.60 bitrate=  87.0kbits/s    
frame=  253 fps=7.0 q=6.0 size=     261kB time=00:00:24.90 bitrate=  86.0kbits/s    
frame=  256 fps=6.9 q=15.0 size=     421kB time=00:00:25.20 bitrate= 136.8kbits/s    
frame=  261 fps=6.9 q=10.0 size=     421kB time=00:00:25.70 bitrate= 134.2kbits/s    
frame=  265 fps=6.9 q=9.0 size=     421kB time=00:00:26.10 bitrate= 132.2kbits/s    
frame=  269 fps=6.9 q=9.0 size=     421kB time=00:00:26.50 bitrate= 130.2kbits/s    
frame=  271 fps=6.9 q=9.0 size=     421kB time=00:00:26.70 bitrate= 129.3kbits/s    
frame=  274 fps=6.8 q=9.0 size=     422kB time=00:00:27.00 bitrate= 127.9kbits/s    
frame=  277 fps=6.8 q=9.0 size=     422kB time=00:00:27.30 bitrate= 126.5kbits/s    
frame=  280 fps=6.8 q=9.0 size=     422kB time=00:00:27.60 bitrate= 125.2kbits/s    
frame=  285 fps=6.8 q=9.0 size=     422kB time=00:00:28.10 bitrate= 123.0kbits/s    
frame=  290 fps=6.9 q=9.0 size=     422kB time=00:00:28.60 bitrate= 120.9kbits/s    
frame=  292 fps=6.8 q=9.0 size=     422kB time=00:00:28.80 bitrate= 120.0kbits/s    
frame=  296 fps=6.8 q=9.0 size=     422kB time=00:00:29.20 bitrate= 118.4kbits/s    
frame=  301 fps=6.8 q=9.0 size=     422kB time=00:00:29.70 bitrate= 116.5kbits/s    
frame=  306 fps=6.8 q=9.0 size=     422kB time=00:00:30.20 bitrate= 114.6kbits/s    
frame=  311 fps=6.8 q=9.0 size=     422kB time=00:00:30.70 bitrate= 112.7kbits/s    
frame=  316 fps=6.9 q=9.0 size=     423kB time=00:00:31.20 bitrate= 111.0kbits/s    
frame=  320 fps=6.9 q=9.0 size=     423kB time=00:00:31.60 bitrate= 109.6kbits/s    
frame=  323 fps=6.9 q=9.0 size=     423kB time=00:00:31.90 bitrate= 108.6kbits/s    
frame=  325 fps=6.8 q=9.0 size=     423kB time=00:00:32.10 bitrate= 107.9kbits/s    
frame=  327 fps=6.8 q=9.0 size=     423kB time=00:00:32.30 bitrate= 107.3kbits/s    
frame=  330 fps=6.8 q=9.0 size=     423kB time=00:00:32.60 bitrate= 106.3kbits/s    
frame=  335 fps=6.8 q=9.0 size=     423kB time=00:00:33.10 bitrate= 104.8kbits/s    
frame=  340 fps=6.8 q=9.0 size=     424kB time=00:00:33.60 bitrate= 103.3kbits/s    
frame=  343 fps=6.8 q=9.0 size=     424kB time=00:00:33.90 bitrate= 102.4kbits/s    
frame=  347 fps=6.8 q=9.0 size=     424kB time=00:00:34.30 bitrate= 101.2kbits/s    
frame=  352 fps=6.8 q=9.0 size=     424kB time=00:00:34.80 bitrate=  99.8kbits/s    
frame=  356 fps=6.8 q=9.0 size=     424kB time=00:00:35.20 bitrate=  98.7kbits/s    
frame=  361 fps=6.8 q=9.0 size=     424kB time=00:00:35.70 bitrate=  97.3kbits/s    
frame=  363 fps=6.8 q=9.0 size=     424kB time=00:00:35.90 bitrate=  96.8kbits/s    
frame=  366 fps=6.7 q=9.0 size=     424kB time=00:00:36.20 bitrate=  96.0kbits/s    
frame=  369 fps=6.7 q=9.0 size=     424kB time=00:00:36.50 bitrate=  95.2kbits/s    
frame=  372 fps=6.6 q=9.0 size=     425kB time=00:00:36.80 bitrate=  94.5kbits/s    
frame=  375 fps=6.6 q=9.0 size=     425kB time=00:00:37.10 bitrate=  93.8kbits/s    
frame=  378 fps=6.6 q=9.0 size=     425kB time=00:00:37.40 bitrate=  93.1kbits/s    
frame=  386 fps=6.7 q=9.0 size=     425kB time=00:00:38.20 bitrate=  91.2kbits/s    
frame=  392 fps=6.7 q=9.0 size=     425kB time=00:00:38.80 bitrate=  89.8kbits/s    
frame=  395 fps=6.7 q=9.0 size=     425kB time=00:00:39.10 bitrate=  89.1kbits/s    
frame=  397 fps=6.6 q=9.0 size=     425kB time=00:00:39.30 bitrate=  88.7kbits/s    
frame=  399 fps=6.6 q=9.0 size=     426kB time=00:00:39.50 bitrate=  88.3kbits/s    
frame=  403 fps=6.6 q=9.0 size=     426kB time=00:00:39.90 bitrate=  87.4kbits/s    
frame=  406 fps=6.6 q=9.0 size=     426kB time=00:00:40.20 bitrate=  86.8kbits/s    
frame=  410 fps=6.6 q=9.0 size=     426kB time=00:00:40.60 bitrate=  86.0kbits/s    
frame=  413 fps=6.6 q=9.0 size=     426kB time=00:00:40.90 bitrate=  85.3kbits/s    
frame=  416 fps=6.6 q=9.0 size=     426kB time=00:00:41.20 bitrate=  84.7kbits/s    
frame=  419 fps=6.5 q=9.0 size=     426kB time=00:00:41.50 bitrate=  84.1kbits/s    
frame=  423 fps=6.5 q=9.0 size=     426kB time=00:00:41.90 bitrate=  83.4kbits/s    
frame=  428 fps=6.5 q=9.0 size=     427kB time=00:00:42.40 bitrate=  82.4kbits/s    
frame=  434 fps=6.6 q=9.0 size=     427kB time=00:00:43.00 bitrate=  81.3kbits/s    
frame=  439 fps=6.6 q=9.0 size=     427kB time=00:00:43.50 bitrate=  80.4kbits/s    
frame=  442 fps=6.6 q=9.0 size=     427kB time=00:00:43.80 bitrate=  79.9kbits/s    
frame=  445 fps=6.6 q=9.0 size=     427kB time=00:00:44.10 bitrate=  79.3kbits/s    
frame=  448 fps=6.6 q=9.0 size=     427kB time=00:00:44.40 bitrate=  78.8kbits/s    
frame=  452 fps=6.6 q=9.0 size=     427kB time=00:00:44.80 bitrate=  78.2kbits/s    
frame=  456 fps=6.6 q=9.0 size=     427kB time=00:00:45.20 bitrate=  77.5kbits/s    
frame=  459 fps=6.5 q=9.0 size=     428kB time=00:00:45.50 bitrate=  77.0kbits/s    
frame=  460 fps=6.5 q=9.0 size=     428kB time=00:00:45.60 bitrate=  76.8kbits/s    
frame=  464 fps=6.5 q=9.0 size=     428kB time=00:00:46.00 bitrate=  76.2kbits/s    
frame=  469 fps=6.5 q=9.0 size=     428kB time=00:00:46.50 bitrate=  75.4kbits/s    
frame=  473 fps=6.5 q=9.0 size=     428kB time=00:00:46.90 bitrate=  74.8kbits/s    
frame=  476 fps=6.5 q=9.0 size=     428kB time=00:00:47.20 bitrate=  74.3kbits/s    
frame=  479 fps=6.5 q=9.0 size=     428kB time=00:00:47.50 bitrate=  73.9kbits/s    
frame=  484 fps=6.5 q=9.0 size=     428kB time=00:00:48.00 bitrate=  73.1kbits/s    
frame=  487 fps=6.5 q=9.0 size=     429kB time=00:00:48.30 bitrate=  72.7kbits/s    
frame=  490 fps=6.5 q=9.0 size=     429kB time=00:00:48.60 bitrate=  72.3kbits/s    
frame=  494 fps=6.5 q=9.0 size=     429kB time=00:00:49.00 bitrate=  71.7kbits/s    
frame=  497 fps=6.5 q=9.0 size=     429kB time=00:00:49.30 bitrate=  71.3kbits/s    
frame=  501 fps=6.5 q=9.0 size=     429kB time=00:00:49.70 bitrate=  70.8kbits/s    
frame=  505 fps=6.5 q=17.0 size=     589kB time=00:00:50.10 bitrate=  96.2kbits/s    
frame=  508 fps=6.5 q=12.0 size=     589kB time=00:00:50.40 bitrate=  95.7kbits/s    
frame=  512 fps=6.5 q=9.0 size=     589kB time=00:00:50.80 bitrate=  94.9kbits/s    
frame=  516 fps=6.5 q=9.0 size=     589kB time=00:00:51.20 bitrate=  94.2kbits/s    
frame=  520 fps=6.5 q=9.0 size=     589kB time=00:00:51.60 bitrate=  93.5kbits/s    
frame=  524 fps=6.5 q=9.0 size=     589kB time=00:00:52.00 bitrate=  92.8kbits/s    
frame=  529 fps=6.5 q=9.0 size=     589kB time=00:00:52.50 bitrate=  92.0kbits/s    
frame=  531 fps=6.5 q=9.0 size=     589kB time=00:00:52.70 bitrate=  91.6kbits/s    
frame=  535 fps=6.5 q=9.0 size=     590kB time=00:00:53.10 bitrate=  90.9kbits/s    
frame=  540 fps=6.5 q=9.0 size=     590kB time=00:00:53.60 bitrate=  90.1kbits/s    
frame=  544 fps=6.5 q=9.0 size=     590kB time=00:00:54.00 bitrate=  89.5kbits/s    
frame=  548 fps=6.5 q=9.0 size=     590kB time=00:00:54.40 bitrate=  88.8kbits/s    
frame=  551 fps=6.5 q=9.0 size=     590kB time=00:00:54.70 bitrate=  88.4kbits/s    
frame=  557 fps=6.5 q=9.0 size=     590kB time=00:00:55.30 bitrate=  87.5kbits/s    
frame=  560 fps=6.5 q=9.0 size=     590kB time=00:00:55.60 bitrate=  87.0kbits/s    
frame=  565 fps=6.5 q=9.0 size=     591kB time=00:00:56.10 bitrate=  86.2kbits/s    
frame=  569 fps=6.5 q=9.0 size=     591kB time=00:00:56.50 bitrate=  85.6kbits/s    
frame=  572 fps=6.5 q=9.0 size=     591kB time=00:00:56.80 bitrate=  85.2kbits/s    
frame=  575 fps=6.5 q=9.0 size=     591kB time=00:00:57.10 bitrate=  84.8kbits/s    
frame=  580 fps=6.5 q=9.0 size=     591kB time=00:00:57.60 bitrate=  84.1kbits/s    
frame=  584 fps=6.5 q=9.0 size=     591kB time=00:00:58.00 bitrate=  83.5kbits/s    
frame=  589 fps=6.5 q=9.0 size=     591kB time=00:00:58.50 bitrate=  82.8kbits/s    
frame=  595 fps=6.6 q=9.0 size=     592kB time=00:00:59.10 bitrate=  82.0kbits/s    
frame=  602 fps=6.6 q=9.0 size=     592kB time=00:00:59.80 bitrate=  81.1kbits/s    
frame=  608 fps=6.6 q=9.0 size=     592kB time=00:01:00.40 bitrate=  80.3kbits/s    
frame=  613 fps=6.6 q=9.0 size=     592kB time=00:01:00.90 bitrate=  79.6kbits/s    
frame=  619 fps=6.7 q=9.0 size=     592kB time=00:01:01.50 bitrate=  78.9kbits/s    
frame=  623 fps=6.7 q=9.0 size=     592kB time=00:01:01.90 bitrate=  78.4kbits/s    
frame=  628 fps=6.7 q=9.0 size=     592kB time=00:01:02.40 bitrate=  77.8kbits/s    
frame=  630 fps=6.7 q=9.0 size=     593kB time=00:01:02.60 bitrate=  77.5kbits/s    
frame=  634 fps=6.7 q=9.0 size=     593kB time=00:01:03.00 bitrate=  77.1kbits/s    
frame=  638 fps=6.7 q=9.0 size=     593kB time=00:01:03.40 bitrate=  76.6kbits/s    
frame=  642 fps=6.7 q=9.0 size=     593kB time=00:01:03.80 bitrate=  76.1kbits/s    
frame=  648 fps=6.7 q=9.0 size=     593kB time=00:01:04.40 bitrate=  75.5kbits/s    
frame=  653 fps=6.7 q=9.0 size=     593kB time=00:01:04.90 bitrate=  74.9kbits/s    
frame=  660 fps=6.7 q=9.0 size=     594kB time=00:01:05.60 bitrate=  74.1kbits/s    
frame=  667 fps=6.8 q=9.0 size=     594kB time=00:01:06.30 bitrate=  73.4kbits/s    
frame=  674 fps=6.8 q=9.0 size=     594kB time=00:01:07.00 bitrate=  72.6kbits/s    
frame=  681 fps=6.8 q=9.0 size=     594kB time=00:01:07.70 bitrate=  71.9kbits/s    
frame=  686 fps=6.8 q=9.0 size=     594kB time=00:01:08.20 bitrate=  71.4kbits/s    
frame=  692 fps=6.9 q=9.0 size=     594kB time=00:01:08.80 bitrate=  70.8kbits/s    
frame=  699 fps=6.9 q=9.0 size=     595kB time=00:01:09.50 bitrate=  70.1kbits/s    
frame=  704 fps=6.9 q=9.0 size=     595kB time=00:01:10.00 bitrate=  69.6kbits/s    
frame=  709 fps=6.9 q=9.0 size=     595kB time=00:01:10.50 bitrate=  69.1kbits/s    
frame=  715 fps=6.9 q=9.0 size=     595kB time=00:01:11.10 bitrate=  68.6kbits/s    
frame=  722 fps=7.0 q=9.0 size=     595kB time=00:01:11.80 bitrate=  67.9kbits/s    
frame=  727 fps=7.0 q=9.0 size=     595kB time=00:01:12.30 bitrate=  67.5kbits/s    
frame=  731 fps=7.0 q=9.0 size=     595kB time=00:01:12.70 bitrate=  67.1kbits/s    
frame=  736 fps=7.0 q=9.0 size=     596kB time=00:01:13.20 bitrate=  66.7kbits/s    
frame=  741 fps=7.0 q=9.0 size=     596kB time=00:01:13.70 bitrate=  66.2kbits/s    
frame=  746 fps=7.0 q=9.0 size=     596kB time=00:01:14.20 bitrate=  65.8kbits/s    
frame=  750 fps=7.0 q=9.0 size=     596kB time=00:01:14.60 bitrate=  65.5kbits/s    
frame=  755 fps=7.0 q=17.0 size=     755kB time=00:01:15.10 bitrate=  82.4kbits/s    
frame=  758 fps=7.0 q=12.0 size=     756kB time=00:01:15.40 bitrate=  82.1kbits/s    
frame=  761 fps=7.0 q=10.0 size=     756kB time=00:01:15.70 bitrate=  81.8kbits/s    
frame=  763 fps=7.0 q=9.0 size=     756kB time=00:01:15.90 bitrate=  81.6kbits/s    
frame=  766 fps=7.0 q=9.0 size=     756kB time=00:01:16.20 bitrate=  81.3kbits/s    
frame=  768 fps=7.0 q=9.0 size=     756kB time=00:01:16.40 bitrate=  81.1kbits/s    
frame=  771 fps=6.9 q=9.0 size=     756kB time=00:01:16.70 bitrate=  80.8kbits/s    
frame=  774 fps=6.9 q=9.0 size=     756kB time=00:01:17.00 bitrate=  80.5kbits/s    
frame=  776 fps=6.9 q=9.0 size=     756kB time=00:01:17.20 bitrate=  80.3kbits/s    
frame=  780 fps=6.9 q=9.0 size=     757kB time=00:01:17.60 bitrate=  79.9kbits/s    
frame=  784 fps=6.9 q=9.0 size=     757kB time=00:01:18.00 bitrate=  79.5kbits/s    
frame=  790 fps=6.9 q=9.0 size=     757kB time=00:01:18.60 bitrate=  78.9kbits/s    
frame=  796 fps=6.9 q=9.0 size=     757kB time=00:01:19.20 bitrate=  78.3kbits/s    
frame=  798 fps=6.9 q=9.0 size=     757kB time=00:01:19.40 bitrate=  78.1kbits/s    
frame=  802 fps=6.9 q=9.0 size=     757kB time=00:01:19.80 bitrate=  77.7kbits/s    
frame=  806 fps=6.9 q=9.0 size=     757kB time=00:01:20.20 bitrate=  77.4kbits/s    
frame=  812 fps=6.9 q=9.0 size=     758kB time=00:01:20.80 bitrate=  76.8kbits/s    
frame=  819 fps=7.0 q=9.0 size=     758kB time=00:01:21.50 bitrate=  76.2kbits/s    
frame=  826 fps=7.0 q=9.0 size=     758kB time=00:01:22.20 bitrate=  75.5kbits/s    
frame=  833 fps=7.0 q=9.0 size=     758kB time=00:01:22.90 bitrate=  74.9kbits/s    
frame=  841 fps=7.0 q=9.0 size=     758kB time=00:01:23.70 bitrate=  74.2kbits/s    
frame=  848 fps=7.1 q=9.0 size=     759kB time=00:01:24.40 bitrate=  73.6kbits/s    
frame=  854 fps=7.1 q=9.0 size=     759kB time=00:01:25.00 bitrate=  73.1kbits/s    
frame=  857 fps=7.1 q=9.0 size=     759kB time=00:01:25.30 bitrate=  72.9kbits/s    
frame=  861 fps=7.1 q=9.0 size=     759kB time=00:01:25.70 bitrate=  72.5kbits/s    
frame=  866 fps=7.1 q=9.0 size=     759kB time=00:01:26.20 bitrate=  72.1kbits/s    
frame=  869 fps=7.1 q=9.0 size=     759kB time=00:01:26.50 bitrate=  71.9kbits/s    
frame=  873 fps=7.1 q=9.0 size=     759kB time=00:01:26.90 bitrate=  71.6kbits/s    
frame=  875 fps=7.1 q=9.0 size=     759kB time=00:01:27.10 bitrate=  71.4kbits/s    
frame=  876 fps=7.0 q=9.0 size=     759kB time=00:01:27.20 bitrate=  71.3kbits/s    
frame=  879 fps=7.0 q=11.0 size=     759kB time=00:01:27.50 bitrate=  71.1kbits/s    
frame=  880 fps=7.0 q=10.0 size=     764kB time=00:01:27.60 bitrate=  71.4kbits/s    
frame=  881 fps=7.0 q=10.0 size=     764kB time=00:01:27.70 bitrate=  71.4kbits/s    
frame=  883 fps=6.9 q=9.0 size=     764kB time=00:01:27.90 bitrate=  71.2kbits/s    
frame=  885 fps=6.9 q=9.0 size=     765kB time=00:01:28.10 bitrate=  71.1kbits/s    
frame=  888 fps=6.9 q=9.0 size=     765kB time=00:01:28.40 bitrate=  70.9kbits/s    
frame=  891 fps=6.9 q=9.0 size=     765kB time=00:01:28.70 bitrate=  70.7kbits/s    
frame=  893 fps=6.9 q=9.0 size=     765kB time=00:01:28.90 bitrate=  70.5kbits/s    
frame=  897 fps=6.9 q=9.0 size=     765kB time=00:01:29.30 bitrate=  70.2kbits/s    
--40003LOG 12:29:55:700585200 Trapped SIGTERM or SIGINT so shutting down ffmpeg gracefully...
--40003LOG 12:29:55:789117300 Will kill VID_TOOL_PID=639 ...
frame=  900 fps=6.9 q=-1.0 Lsize=     766kB time=00:01:30.00 bitrate=  69.7kbits/s    
video:759kB audio:0kB subtitle:0kB other streams:0kB global headers:0kB muxing overhead: 0.839758%
[libx264 @ 0x197b320] frame I:4     Avg QP: 9.50  size:125995
[libx264 @ 0x197b320] frame P:896   Avg QP: 9.23  size:   305
[libx264 @ 0x197b320] mb I  I16..4: 100.0%  0.0%  0.0%
[libx264 @ 0x197b320] mb P  I16..4:  0.2%  0.0%  0.0%  P16..4:  0.3%  0.0%  0.0%  0.0%  0.0%    skip:99.5%
[libx264 @ 0x197b320] coded y,uvDC,uvAC intra: 19.2% 15.6% 15.0% inter: 0.1% 0.1% 0.1%
[libx264 @ 0x197b320] i16 v,h,dc,p: 70% 28%  2%  0%
[libx264 @ 0x197b320] i8c dc,h,v,p: 71% 23%  6%  0%
[libx264 @ 0x197b320] kb/s:69.08
Exiting normally, received signal 2.
--40003LOG 12:29:56:852326400 Tried to kill -SIGTERM VID_TOOL_PID=639
--40003LOG 12:29:56:898509100 Waiting up to 6s for VID_TOOL_PID=639 to end with SIGTERM...
--40003LOG 12:29:56:992683000 wait_pid successfully managed to SIGTERM:VID_TOOL_PID=639 within less than 6s
--40003LOG 12:29:57:046117100 Will try to fix the videos...
--40003LOG 12:29:57:706472000 Fixing perms for /home/seluser/videos/vid_chrome_or_firefox_40003.mkv*
--40003LOG 12:29:58:022504700 Changing video encoding from mkv to mp4...
--40003LOG 12:30:18:341122000 Conversion from mkv to mp4 FAILED! in within the 20s
--40003LOG 12:30:18:410717000 Optimizing /home/seluser/videos/vid_chrome_or_firefox_40003.mp4 for HTTP streaming...
Error opening file /home/seluser/videos/vid_chrome_or_firefox_40003.mp4: Invalid IsoMedia File
--40003LOG 12:30:18:537568200 MP4Box got errors meaning the mp4 video file is corrupted, trying again...
Error opening file /home/seluser/videos/vid_chrome_or_firefox_40003.mp4: Invalid IsoMedia File
--40003LOG 12:30:19:638885000 MP4Box got errors meaning the mp4 video file is corrupted, trying again...
Error opening file /home/seluser/videos/vid_chrome_or_firefox_40003.mp4: Invalid IsoMedia File
--40003LOG 12:30:20:847533800 MP4Box got errors meaning the mp4 video file is corrupted, trying again...
Error opening file /home/seluser/videos/vid_chrome_or_firefox_40003.mp4: Invalid IsoMedia File
--40003LOG 12:30:21:947357100 MP4Box got errors meaning the mp4 video file is corrupted, trying again...
Error opening file /home/seluser/videos/vid_chrome_or_firefox_40003.mp4: Invalid IsoMedia File
--40003LOG 12:30:23:091924800 MP4Box got errors meaning the mp4 video file is corrupted, trying again...
Error opening file /home/seluser/videos/vid_chrome_or_firefox_40003.mp4: Invalid IsoMedia File
--40003LOG 12:30:24:196475400 MP4Box got errors meaning the mp4 video file is corrupted, trying again...
Error opening file /home/seluser/videos/vid_chrome_or_firefox_40003.mp4: Invalid IsoMedia File
--40003LOG 12:30:25:388236500 MP4Box got errors meaning the mp4 video file is corrupted, trying again...
--40003LOG 12:30:26:467621000 Failed! to mp4box_retry.sh within 8s
--40003LOG 12:30:26:533218200 ffmpeg shutdown complete.
